<svg xmlns="http://www.w3.org/2000/svg" width="152" height="39.147" viewBox="0 0 152 39.147"><title>sharda-logo</title><path d="M145.0848,21.5905h-11.63l-2.425,5.7683-.0712.1695H126.542l.1618-.3831L138.0979.17,138.17,0h2.244l.0713.17,11.3538,26.9757.1613.3831h-4.457l-.071-.1717ZM111.5625.3786a18.7635,18.7635,0,0,1,5.7416.8234,12.7177,12.7177,0,0,1,5.0014,2.9435A12.3794,12.3794,0,0,1,125.25,8.4864a14.4661,14.4661,0,0,1,.984,5.4291,14.3875,14.3875,0,0,1-.9879,5.4129,12.79,12.79,0,0,1-7.9365,7.355,18.3664,18.3664,0,0,1-5.7472.8449h-8.1287V.3786h8.1287Zm-3.9738,3.9658v19.218h3.9738a13.4421,13.4421,0,0,0,4.1625-.5972,8.8159,8.8159,0,0,0,3.5383-2.1289,8.9818,8.9818,0,0,0,2.0858-3.16,10.3565,10.3565,0,0,0,.6542-3.7606,10.3944,10.3944,0,0,0-.6457-3.7541,8.7079,8.7079,0,0,0-2.0865-3.14,8.8569,8.8569,0,0,0-3.5508-2.094,13.718,13.718,0,0,0-4.1579-.5828Zm-25.18,0v8.0232h5.3353a6.52,6.52,0,0,0,1.8326-.2342,3.6591,3.6591,0,0,0,1.5456-.8735,3.5456,3.5456,0,0,0,.8638-1.3163A4.5183,4.5183,0,0,0,92.247,8.356a4.52,4.52,0,0,0-.2609-1.5877,3.5438,3.5438,0,0,0-.8638-1.3165,3.66,3.66,0,0,0-1.5456-.8734,6.5257,6.5257,0,0,0-1.8326-.234ZM86.85,16.3336H82.4088V27.5283H78.2535V.3786H87.82A10.5193,10.5193,0,0,1,91.334.9344a7.7154,7.7154,0,0,1,2.7576,1.6717,7.4363,7.4363,0,0,1,1.7871,2.5592,8.1243,8.1243,0,0,1,.5991,3.1528,8.5439,8.5439,0,0,1-.4416,2.781,7.5008,7.5008,0,0,1-1.3218,2.3582,7.2932,7.2932,0,0,1-1.5881,1.4359,7.9088,7.9088,0,0,1-1.6352.8292l16.7825,22.9864.32.4381h-5.0171l-.083-.1133ZM67.3632,21.5905H55.7337l-2.4249,5.7683-.0713.1695H48.82l.1619-.3831L60.3765.17,60.448,0h2.2441l.0713.17L74.1172,27.1452l.1613.3831h-4.457l-.0711-.1717ZM61.5475,7.4849l-4.1865,10.14h8.3454ZM40.6927,14.934H27.5261V27.5283H23.3711V.3786h4.1551V10.968H40.6927V.3786h4.1549v27.15H40.6927V14.934ZM10.41,0a10.4792,10.4792,0,0,1,2.5452.3046A9.5369,9.5369,0,0,1,15.27,1.216,10.2654,10.2654,0,0,1,17.2435,2.63a9.9813,9.9813,0,0,1,1.5646,1.8284l.0011.0011.4257.6386.1429.2144-.2056.1568L16.4465,7.55l-.2284.1742-.1645-.2358-.4886-.7a6.6214,6.6214,0,0,0-2.2224-2.0765A5.9771,5.9771,0,0,0,10.41,4.0041a6.0635,6.0635,0,0,0-1.6044.2018,4.7873,4.7873,0,0,0-1.4475.6665,2.3032,2.3032,0,0,0-.8293.9687,3.1627,3.1627,0,0,0-.2436,1.3046,4.0347,4.0347,0,0,0,.05.6545,2.83,2.83,0,0,0,.17.6136,1.9379,1.9379,0,0,0,.279.4709,2.6029,2.6029,0,0,0,.4008.4c.1863.1511.3787.2991.5775.44l0,.0006c.1949.138.3958.2686.6028.3879.5472.3154,1.1438.6056,1.7256.8887l.0011.0009.0027.0015.0005-.0011,2.7983,1.3618,0,.0005a23.8111,23.8111,0,0,1,2.4765,1.37,11.49,11.49,0,0,1,2.217,1.8026A6.011,6.011,0,0,1,18.84,17.614a7.6374,7.6374,0,0,1,.4174,2.58,7.3786,7.3786,0,0,1-.6567,3.1347,7.1052,7.1052,0,0,1-1.9521,2.492,8.7018,8.7018,0,0,1-2.8242,1.564,10.7546,10.7546,0,0,1-3.4143.5221A11.2679,11.2679,0,0,1,7.4079,27.51a10.6511,10.6511,0,0,1-2.7294-1.1826,11.9863,11.9863,0,0,1-2.32-1.8429A12.8838,12.8838,0,0,1,.5093,22.08l-.3811-.635L0,21.231l.2-.149,2.7769-2.0651.2379-.1771.1592.2516.4717.7449A9.372,9.372,0,0,0,6.6318,22.78a6.8975,6.8975,0,0,0,3.8164,1.0851,6.6978,6.6978,0,0,0,1.811-.2278,4.4546,4.4546,0,0,0,1.5917-.8,2.9892,2.9892,0,0,0,.9-1.1463,3.5984,3.5984,0,0,0,.2757-1.4588,3.847,3.847,0,0,0-.1583-1.161,2.277,2.277,0,0,0-.5728-.9522,8.3158,8.3158,0,0,0-1.5344-1.1311c-.5848-.35-1.1954-.6584-1.727-.9136L8.198,14.7123a23.1835,23.1835,0,0,1-2.2919-1.2463,12.5611,12.5611,0,0,1-2.0828-1.6035A5.5626,5.5626,0,0,1,2.4963,9.8411a7.2069,7.2069,0,0,1-.4416-2.5819A7.0376,7.0376,0,0,1,2.6879,4.243a6.4805,6.4805,0,0,1,1.88-2.3412A8.4679,8.4679,0,0,1,7.2338.4757,10.2494,10.2494,0,0,1,10.41,0ZM139.269,7.4849l-4.1864,10.14h8.3456Z" fill="#c84527" fill-rule="evenodd"/><path d="M75.0612,30.8233l2.8109,3.4308,2.82-3.4326.0417-.0507h1.6905l-.1877.2261L78.545,35.4446V39.007H77.1982V35.4451l-3.6806-4.4484-.187-.226.2934,0,1.33.0021H75.02Zm-8.4334.0856v1.0947H63.3936V39.007H62.0468V32.0035H58.8126V30.7707h7.8153Zm-17.3492,0v6.8654h5.3067V39.007H47.9318V30.7707h1.3469ZM37.5555,35.7473l-1.5184-3.0152-1.5116,3.0152Zm-1.007-4.901,4.0655,7.96.1021.2-.2245,0-1.1748.0019-.0832,0-.0387-.0741L38.1708,36.98h-4.262l-1.026,1.953-.0388.0739H31.372l.1029-.2007,4.0769-7.96.0387-.0755H36.51Zm-12.1634.0626v1.0947h-5.637v2.1494h3.3251v1.2329H18.7481v2.3884h5.6825V39.007h-7.03V30.7707h6.984Zm-14.57,8.0958-1.4713.0019H8.2861l-.04-.04L5.0868,35.7728H3.54V39.007H2.1928V30.7707h5.72a2.4484,2.4484,0,0,1,.9045.1466,1.1693,1.1693,0,0,1,.5768.4627v.0005a1.7787,1.7787,0,0,1,.2159.6323,5.5429,5.5429,0,0,1,.0676.9366v1.2694A1.4007,1.4007,0,0,1,9.2432,35.33a1.6667,1.6667,0,0,1-.7151.3362,4.63,4.63,0,0,1-1.0706.1065h-.51L9.9126,38.77l.2318.2343Zm-2.34-7.0012H3.54V34.54h4.03a1.5079,1.5079,0,0,0,.4379-.0534.4823.4823,0,0,0,.2317-.1373l.0016-.002a.45.45,0,0,0,.0888-.19,1.4692,1.4692,0,0,0,.0357-.3519V33.101a5.6408,5.6408,0,0,0-.0274-.6252.7825.7825,0,0,0-.0654-.2775h0a.4216.4216,0,0,0-.236-.135H8.0358A2.1236,2.1236,0,0,0,7.4747,32.0035Z" fill="#58595b"/></svg>